<svg xmlns="http://www.w3.org/2000/svg" width="84" height="84">
  <g fill="#fff" fill-rule="evenodd">
    <path d="M41.9922 71.875c-16.476 0-29.883-13.406-29.883-29.882 0-16.481 13.407-29.887 29.883-29.887 16.48 0 29.887 13.406 29.887 29.887 0 16.476-13.407 29.882-29.887 29.882m40.352-35.445l-6.829-9.086-2.031-11.183c-.633-3.469-3.402-6.137-6.898-6.633l-11.25-1.598-9.348-6.469c-2.348-1.625-5.308-1.914-7.926-.769-.578.254-1.128.574-1.636.957l-9.086 6.828-11.184 2.031c-.625.114-1.234.301-1.812.555-2.578 1.125-4.426 3.555-4.821 6.34l-1.597 11.254-6.469 9.347c-2.008 2.899-1.934 6.743.184 9.563l6.832 9.086 2.031 11.183c.633 3.473 3.402 6.137 6.894 6.633l11.254 1.598 9.344 6.469c2.313 1.601 5.351 1.898 7.93.769.578-.254 1.128-.574 1.636-.953l9.086-6.832 11.188-2.031c.621-.114 1.23-.301 1.808-.555 2.578-1.125 4.426-3.555 4.821-6.34l1.593-11.254 6.473-9.347c2.008-2.899 1.934-6.743-.187-9.563"/>
    <path d="M41.9922 46.3682h4.293l-.406 4.519-3.887 1.051-.004.004-3.883-1.052-.257-2.905h-3.5l.496 5.601 7.144 1.981h.004l7.148-1.981.954-10.707h-12.703l-.317-3.57h13.34l.312-3.484h-17.464l.941 10.543"/>
    <path d="M53.375 58.4424l-11.387 3.155-11.379-3.159-2.535-28.426H55.91l-2.535 28.43zm-22.746-36.06h1.773v1.755h1.621v-1.755h1.77v5.306h-1.77v-1.777h-1.621v1.777h-1.773v-5.306zm5.933 0h4.895v1.763h-1.562v3.543h-1.77v-3.543h-1.563v-1.763zm5.672 0h1.848l1.133 1.868 1.137-1.868h1.851v5.306h-1.765v-2.629l-1.219 1.886h-.032l-1.218-1.886v2.629h-1.735v-5.306zm6.848 0h1.773v3.552h2.493v1.754h-4.266v-5.306zm-7.09-7.457c-14.922 0-27.066 12.142-27.066 27.068 0 14.921 12.144 27.065 27.066 27.065 14.926 0 27.067-12.144 27.067-27.065 0-14.926-12.141-27.068-27.067-27.068z"/>
  </g>
</svg>
